<svg width="34" height="34" viewBox="0 0 34 34" fill="none" xmlns="http://www.w3.org/2000/svg">
<mask id="path-1-inside-1_211_2338" fill="white">
<path d="M20.0111 16.7644C19.8435 16.7644 19.6879 16.7184 19.5496 16.6442V16.6462C19.5496 16.9099 19.4471 17.1575 19.2612 17.343C19.0752 17.529 18.8277 17.6315 18.5643 17.6315C18.3943 17.6315 18.2367 17.5843 18.097 17.5082C18.0828 17.7494 17.9864 17.9749 17.8144 18.1471C17.6284 18.3331 17.381 18.4355 17.1174 18.4355C16.5938 18.4355 16.1685 18.0239 16.1379 17.508C15.9759 17.5956 15.7927 17.6415 15.6037 17.6293C15.0886 17.5956 14.6852 17.1505 14.6852 16.6159V12.1842L14.1806 13.0585C13.9884 13.3928 13.6286 13.6005 13.2412 13.6005C13.0525 13.6005 12.866 13.5509 12.7009 13.4563C12.4952 13.3371 12.3481 13.1457 12.287 12.9168C12.2255 12.6877 12.2573 12.4481 12.3762 12.2427C12.3763 12.2427 14.0273 9.38383 14.128 9.20822C14.1399 9.18182 14.1741 9.10524 14.2031 9.03997C14.2308 8.97765 14.2546 8.91369 14.2774 8.84941C14.7752 7.44385 16.008 6.57074 17.4947 6.57074C19.4254 6.57074 20.9961 8.27396 20.9961 10.3675L20.9963 15.779C20.9963 16.0424 20.894 16.2898 20.7082 16.476C20.5222 16.662 20.2747 16.7645 20.0111 16.7645L20.0111 16.7644ZM17.4948 7.09429C16.2172 7.09429 15.199 7.81588 14.7708 9.0245C14.7435 9.10124 14.7149 9.17799 14.6816 9.25277C14.585 9.46941 14.585 9.46941 14.5578 9.50056L14.5542 9.49745C14.4194 9.7518 14.0189 10.4453 12.8295 12.5048C12.7806 12.5892 12.7677 12.6873 12.7926 12.7811C12.8179 12.8749 12.8784 12.9539 12.9622 13.0023C13.2223 13.1517 13.5785 13.0553 13.7267 12.797L14.7203 11.0767C14.7797 10.9742 14.8997 10.9238 15.0149 10.955C15.1293 10.9857 15.2089 11.0895 15.2089 11.2079V16.616C15.2089 16.8712 15.4014 17.0914 15.6381 17.107C15.7745 17.1142 15.9018 17.0685 15.9974 16.973C16.0843 16.8861 16.1322 16.7703 16.1322 16.6465V13.1095C16.1322 12.9649 16.2494 12.8476 16.3941 12.8476C16.5387 12.8476 16.656 12.9647 16.656 13.1095L16.6558 17.4505C16.6558 17.705 16.8629 17.9121 17.1174 17.9121C17.2411 17.9121 17.3572 17.8642 17.4443 17.7773C17.5312 17.6902 17.5791 17.5741 17.5791 17.4505V13.1095C17.5791 12.9649 17.6962 12.8476 17.841 12.8476C17.9856 12.8476 18.1029 12.9647 18.1029 13.1095L18.1027 16.6058V16.6465C18.1027 16.9008 18.3098 17.108 18.5645 17.108C18.688 17.108 18.8038 17.0599 18.8913 16.9727C18.9783 16.8859 19.0261 16.7701 19.0261 16.6463V13.1093C19.0261 12.9647 19.1432 12.8474 19.288 12.8474C19.4327 12.8474 19.5499 12.9645 19.5499 13.1093L19.5496 15.7791C19.5496 16.0338 19.7567 16.2409 20.0111 16.2409C20.1349 16.2409 20.2507 16.1929 20.3376 16.1061C20.4248 16.0189 20.4725 15.9028 20.4725 15.7791L20.4727 10.3676C20.4727 8.56292 19.1368 7.09434 17.4947 7.09434L17.4948 7.09429Z"/>
</mask>
<path d="M20.0111 16.7644C19.8435 16.7644 19.6879 16.7184 19.5496 16.6442V16.6462C19.5496 16.9099 19.4471 17.1575 19.2612 17.343C19.0752 17.529 18.8277 17.6315 18.5643 17.6315C18.3943 17.6315 18.2367 17.5843 18.097 17.5082C18.0828 17.7494 17.9864 17.9749 17.8144 18.1471C17.6284 18.3331 17.381 18.4355 17.1174 18.4355C16.5938 18.4355 16.1685 18.0239 16.1379 17.508C15.9759 17.5956 15.7927 17.6415 15.6037 17.6293C15.0886 17.5956 14.6852 17.1505 14.6852 16.6159V12.1842L14.1806 13.0585C13.9884 13.3928 13.6286 13.6005 13.2412 13.6005C13.0525 13.6005 12.866 13.5509 12.7009 13.4563C12.4952 13.3371 12.3481 13.1457 12.287 12.9168C12.2255 12.6877 12.2573 12.4481 12.3762 12.2427C12.3763 12.2427 14.0273 9.38383 14.128 9.20822C14.1399 9.18182 14.1741 9.10524 14.2031 9.03997C14.2308 8.97765 14.2546 8.91369 14.2774 8.84941C14.7752 7.44385 16.008 6.57074 17.4947 6.57074C19.4254 6.57074 20.9961 8.27396 20.9961 10.3675L20.9963 15.779C20.9963 16.0424 20.894 16.2898 20.7082 16.476C20.5222 16.662 20.2747 16.7645 20.0111 16.7645L20.0111 16.7644ZM17.4948 7.09429C16.2172 7.09429 15.199 7.81588 14.7708 9.0245C14.7435 9.10124 14.7149 9.17799 14.6816 9.25277C14.585 9.46941 14.585 9.46941 14.5578 9.50056L14.5542 9.49745C14.4194 9.7518 14.0189 10.4453 12.8295 12.5048C12.7806 12.5892 12.7677 12.6873 12.7926 12.7811C12.8179 12.8749 12.8784 12.9539 12.9622 13.0023C13.2223 13.1517 13.5785 13.0553 13.7267 12.797L14.7203 11.0767C14.7797 10.9742 14.8997 10.9238 15.0149 10.955C15.1293 10.9857 15.2089 11.0895 15.2089 11.2079V16.616C15.2089 16.8712 15.4014 17.0914 15.6381 17.107C15.7745 17.1142 15.9018 17.0685 15.9974 16.973C16.0843 16.8861 16.1322 16.7703 16.1322 16.6465V13.1095C16.1322 12.9649 16.2494 12.8476 16.3941 12.8476C16.5387 12.8476 16.656 12.9647 16.656 13.1095L16.6558 17.4505C16.6558 17.705 16.8629 17.9121 17.1174 17.9121C17.2411 17.9121 17.3572 17.8642 17.4443 17.7773C17.5312 17.6902 17.5791 17.5741 17.5791 17.4505V13.1095C17.5791 12.9649 17.6962 12.8476 17.841 12.8476C17.9856 12.8476 18.1029 12.9647 18.1029 13.1095L18.1027 16.6058V16.6465C18.1027 16.9008 18.3098 17.108 18.5645 17.108C18.688 17.108 18.8038 17.0599 18.8913 16.9727C18.9783 16.8859 19.0261 16.7701 19.0261 16.6463V13.1093C19.0261 12.9647 19.1432 12.8474 19.288 12.8474C19.4327 12.8474 19.5499 12.9645 19.5499 13.1093L19.5496 15.7791C19.5496 16.0338 19.7567 16.2409 20.0111 16.2409C20.1349 16.2409 20.2507 16.1929 20.3376 16.1061C20.4248 16.0189 20.4725 15.9028 20.4725 15.7791L20.4727 10.3676C20.4727 8.56292 19.1368 7.09434 17.4947 7.09434L17.4948 7.09429Z" fill="#4CAF4F"/>
<path d="M20.0111 16.7644V15.8363H23.2901L20.4975 17.5549L20.0111 16.7644ZM19.5496 16.6442H18.6215V15.0935L19.9882 15.8263L19.5496 16.6442ZM19.2612 17.343L18.6049 16.6868L18.6058 16.6859L19.2612 17.343ZM18.097 17.5082L17.1704 17.454L17.2558 15.9933L18.5408 16.6931L18.097 17.5082ZM17.8144 18.1471L18.471 18.803L18.4707 18.8033L17.8144 18.1471ZM16.1379 17.508L15.6966 16.6915L16.978 15.999L17.0643 17.453L16.1379 17.508ZM15.6037 17.6293L15.5442 18.5555L15.543 18.5555L15.6037 17.6293ZM14.6852 12.1842L13.8814 11.7203L15.6133 8.71985V12.1842H14.6852ZM14.1806 13.0585L13.3759 12.596L13.3768 12.5945L14.1806 13.0585ZM12.7009 13.4563L12.2395 14.2616L12.2354 14.2592L12.7009 13.4563ZM12.287 12.9168L13.1833 12.6761L13.1836 12.6772L12.287 12.9168ZM12.3762 12.2427L11.573 11.7777L11.8411 11.3146H12.3762V12.2427ZM14.128 9.20822L14.9732 9.59148L14.955 9.63167L14.9331 9.66995L14.128 9.20822ZM14.2031 9.03997L13.3551 8.66284L13.3551 8.66283L14.2031 9.03997ZM14.2774 8.84941L15.1522 9.15928L15.1521 9.15953L14.2774 8.84941ZM20.9961 10.3675L20.068 10.3675V10.3675H20.9961ZM20.9963 15.779L21.9244 15.779V15.779H20.9963ZM20.7082 16.476L21.365 17.1316L21.3644 17.1323L20.7082 16.476ZM20.0111 16.7645V17.6926H16.7321L19.5246 15.974L20.0111 16.7645ZM17.4948 7.09429V6.16619H18.7252L18.3871 7.34925L17.4948 7.09429ZM14.7708 9.0245L15.6457 9.33442L15.6449 9.33641L14.7708 9.0245ZM14.6816 9.25277L15.5295 9.63023L15.5293 9.63072L14.6816 9.25277ZM14.5578 9.50056L15.2567 10.1112L14.6496 10.8061L13.9512 10.203L14.5578 9.50056ZM14.5542 9.49745L13.7342 9.06285L14.2795 8.03389L15.1608 8.79505L14.5542 9.49745ZM12.8295 12.5048L13.6332 12.9689L13.6328 12.9696L12.8295 12.5048ZM12.7926 12.7811L11.8964 13.0224L11.8956 13.0195L12.7926 12.7811ZM12.9622 13.0023L12.4999 13.8071L12.4982 13.8061L12.9622 13.0023ZM13.7267 12.797L12.9218 12.335L12.923 12.3328L13.7267 12.797ZM14.7203 11.0767L13.9167 10.6125L13.9172 10.6115L14.7203 11.0767ZM15.0149 10.955L14.7747 11.8515L14.7724 11.8509L15.0149 10.955ZM15.6381 17.107L15.589 18.0339L15.5771 18.0331L15.6381 17.107ZM15.9974 16.973L16.6536 17.6293L16.653 17.6298L15.9974 16.973ZM16.656 13.1095H17.584V13.1095L16.656 13.1095ZM16.6558 17.4505H15.7277V17.4504L16.6558 17.4505ZM17.4443 17.7773L18.1011 18.4329L18.0999 18.4342L17.4443 17.7773ZM18.1029 13.1095H19.031V13.1096L18.1029 13.1095ZM18.1027 16.6058H17.1746V16.6058L18.1027 16.6058ZM18.8913 16.9727L19.547 17.6295L19.5464 17.6301L18.8913 16.9727ZM19.5499 13.1093H20.478V13.1094L19.5499 13.1093ZM19.5496 15.7791H18.6215V15.779L19.5496 15.7791ZM20.3376 16.1061L20.9938 16.7624L20.9932 16.763L20.3376 16.1061ZM20.4725 15.7791H19.5444V15.7791L20.4725 15.7791ZM20.4727 10.3676H21.4008V10.3677L20.4727 10.3676ZM17.4947 7.09434V8.02243H16.2643L16.6024 6.83937L17.4947 7.09434ZM20.0111 17.6925C19.6693 17.6925 19.3642 17.5979 19.111 17.4622L19.9882 15.8263C20.0002 15.8327 20.0078 15.8352 20.0108 15.836C20.0134 15.8367 20.0131 15.8363 20.0111 15.8363V17.6925ZM20.4777 16.6442V16.6462H18.6215V16.6442H20.4777ZM20.4777 16.6462C20.4777 17.1553 20.2779 17.6397 19.9165 18.0001L18.6058 16.6859C18.6124 16.6793 18.6157 16.6736 18.6176 16.669C18.6195 16.6643 18.6215 16.6572 18.6215 16.6462H20.4777ZM19.9174 17.9993C19.5572 18.3594 19.0737 18.5596 18.5643 18.5596V16.7034C18.575 16.7034 18.582 16.7015 18.5868 16.6995C18.5915 16.6975 18.5976 16.694 18.6049 16.6868L19.9174 17.9993ZM18.5643 18.5596C18.2181 18.5596 17.9092 18.4627 17.6531 18.3232L18.5408 16.6931C18.5529 16.6997 18.5606 16.7022 18.5636 16.703C18.5662 16.7037 18.566 16.7034 18.5643 16.7034V18.5596ZM19.0235 17.5623C18.9968 18.0191 18.8114 18.4622 18.471 18.803L17.1578 17.4912C17.1612 17.4877 17.1632 17.4847 17.1649 17.4808C17.1667 17.4767 17.1696 17.4682 17.1704 17.454L19.0235 17.5623ZM18.4707 18.8033C18.1104 19.1636 17.6268 19.3636 17.1174 19.3636V17.5075C17.1282 17.5075 17.1353 17.5055 17.14 17.5035C17.1448 17.5016 17.1509 17.4981 17.1581 17.4908L18.4707 18.8033ZM17.1174 19.3636C16.0928 19.3636 15.2706 18.5595 15.2114 17.563L17.0643 17.453C17.0653 17.4688 17.0717 17.4826 17.0832 17.4935C17.0887 17.4988 17.0944 17.5022 17.0993 17.5042C17.1036 17.506 17.1091 17.5075 17.1174 17.5075V19.3636ZM16.5792 18.3245C16.2794 18.4865 15.9239 18.5799 15.5442 18.5555L15.6632 16.7032C15.6633 16.7032 15.6652 16.7034 15.6701 16.7022C15.6754 16.701 15.6844 16.6981 15.6966 16.6915L16.5792 18.3245ZM15.543 18.5555C14.5125 18.4879 13.7571 17.6115 13.7571 16.6159H15.6133C15.6133 16.6472 15.6247 16.6714 15.639 16.6872C15.6529 16.7025 15.6624 16.7031 15.6645 16.7032L15.543 18.5555ZM13.7571 16.6159V12.1842H15.6133V16.6159H13.7571ZM15.489 12.6482L14.9844 13.5224L13.3768 12.5945L13.8814 11.7203L15.489 12.6482ZM14.9852 13.521C14.6266 14.1449 13.9591 14.5285 13.2412 14.5285V12.6724C13.2981 12.6724 13.3502 12.6408 13.3759 12.596L14.9852 13.521ZM13.2412 14.5285C12.8903 14.5285 12.5448 14.4365 12.2395 14.2616L13.1623 12.651C13.1873 12.6653 13.2147 12.6724 13.2412 12.6724V14.5285ZM12.2354 14.2592C11.8187 14.0177 11.5154 13.6245 11.3903 13.1563L13.1836 12.6772C13.1828 12.674 13.1805 12.6684 13.176 12.6626C13.1715 12.6568 13.1674 12.654 13.1664 12.6534L12.2354 14.2592ZM11.3906 13.1574C11.265 12.6895 11.3308 12.196 11.573 11.7777L13.1794 12.7078C13.1807 12.7055 13.183 12.7002 13.184 12.6927C13.185 12.6852 13.1841 12.6792 13.1833 12.6761L11.3906 13.1574ZM12.3762 11.3146C11.9209 11.434 11.5802 11.7656 11.5776 11.7698C11.5768 11.7713 11.5755 11.7734 11.5751 11.7741C11.5749 11.7745 11.5745 11.7752 11.5743 11.7754C11.5743 11.7755 11.5741 11.7758 11.574 11.7759C11.5739 11.7761 11.574 11.7761 11.5743 11.7755C11.5749 11.7744 11.576 11.7725 11.5775 11.7699C11.5806 11.7646 11.5852 11.7567 11.5912 11.7462C11.6033 11.7253 11.6211 11.6946 11.6437 11.6553C11.6891 11.5768 11.7539 11.4645 11.8321 11.3291C11.9885 11.0584 12.198 10.6956 12.4106 10.3273C12.8366 9.58941 13.2734 8.83275 13.3229 8.74649L14.9331 9.66995C14.8818 9.7593 14.4428 10.5199 14.0181 11.2554C13.8054 11.6238 13.5959 11.9866 13.4395 12.2574C13.3613 12.3928 13.2964 12.5052 13.251 12.5838C13.2283 12.623 13.2105 12.6539 13.1983 12.6749C13.1923 12.6855 13.1876 12.6936 13.1843 12.6992C13.1828 12.7019 13.1814 12.7042 13.1805 12.7059C13.18 12.7066 13.1795 12.7076 13.1789 12.7085C13.1787 12.7088 13.1781 12.7099 13.1774 12.7111C13.177 12.7119 13.1757 12.7141 13.1748 12.7156C13.1722 12.7199 12.8314 13.0515 12.3762 13.1708V11.3146ZM13.2827 8.82496C13.2929 8.80243 13.3253 8.72979 13.3551 8.66284L15.0511 9.41709C15.0228 9.48069 14.987 9.56121 14.9732 9.59148L13.2827 8.82496ZM13.3551 8.66283C13.368 8.63382 13.3822 8.59676 13.4026 8.53928L15.1521 9.15953C15.1269 9.23062 15.0936 9.32147 15.0511 9.4171L13.3551 8.66283ZM13.4025 8.53953C14.0311 6.76491 15.6133 5.64265 17.4947 5.64265V7.49884C16.4027 7.49884 15.5193 8.12278 15.1522 9.15928L13.4025 8.53953ZM17.4947 5.64265C20.0073 5.64265 21.9242 7.83359 21.9242 10.3675H20.068C20.068 8.71432 18.8435 7.49884 17.4947 7.49884V5.64265ZM21.9242 10.3675L21.9244 15.779L20.0682 15.779L20.068 10.3675L21.9242 10.3675ZM21.9244 15.779C21.9244 16.288 21.7247 16.7713 21.365 17.1316L20.0513 15.8203C20.0586 15.813 20.0622 15.8067 20.0642 15.8019C20.0662 15.797 20.0682 15.7898 20.0682 15.779H21.9244ZM21.3644 17.1323C21.0042 17.4925 20.5205 17.6926 20.0111 17.6926V15.8364C20.022 15.8364 20.0291 15.8344 20.0338 15.8324C20.0386 15.8305 20.0447 15.827 20.0519 15.8197L21.3644 17.1323ZM19.5246 15.974L19.5247 15.974L20.4975 17.5549L20.4975 17.5549L19.5246 15.974ZM17.4948 8.02238C16.6124 8.02238 15.9432 8.49442 15.6457 9.33442L13.896 8.71458C14.4548 7.13733 15.8221 6.16619 17.4948 6.16619V8.02238ZM15.6449 9.33641C15.6157 9.41851 15.5776 9.5222 15.5295 9.63023L13.8338 8.87532C13.8522 8.83379 13.8713 8.78398 13.8967 8.71258L15.6449 9.33641ZM15.5293 9.63072C15.4868 9.72604 15.4512 9.80654 15.4239 9.86107C15.407 9.89491 15.3796 9.94707 15.3399 10.0048C15.2997 10.0634 15.2599 10.1075 15.2567 10.1112L13.8589 8.88991C13.8611 8.88742 13.8604 8.88823 13.8593 8.8895C13.8579 8.89115 13.8543 8.89536 13.8495 8.90113C13.8446 8.9071 13.8384 8.91482 13.8315 8.924C13.8245 8.93326 13.8173 8.94311 13.8102 8.9535C13.7956 8.97466 13.7845 8.99319 13.7765 9.0072C13.7691 9.02029 13.7645 9.02934 13.7635 9.03138C13.7624 9.03349 13.7631 9.03225 13.7662 9.0255C13.7693 9.01895 13.7736 9.00953 13.7798 8.99582C13.786 8.98222 13.7934 8.9658 13.8024 8.94551C13.8115 8.92525 13.8218 8.90204 13.834 8.87483L15.5293 9.63072ZM13.9512 10.203L13.9476 10.1999L15.1608 8.79505L15.1644 8.79816L13.9512 10.203ZM15.3743 9.93205C15.229 10.2061 14.8143 10.9239 13.6332 12.9689L12.0258 12.0406C13.2236 9.96678 13.6098 9.29747 13.7342 9.06285L15.3743 9.93205ZM13.6328 12.9696C13.7071 12.8413 13.7278 12.6864 13.6896 12.5427L11.8956 13.0195C11.8076 12.6881 11.8542 12.3372 12.0262 12.0399L13.6328 12.9696ZM13.6888 12.5398C13.6506 12.398 13.5567 12.2739 13.4262 12.1985L12.4982 13.8061C12.2 13.634 11.9851 13.3518 11.8964 13.0224L13.6888 12.5398ZM13.4244 12.1975C13.3188 12.1368 13.216 12.1372 13.1451 12.1563C13.0744 12.1754 12.9838 12.2269 12.9218 12.335L14.5316 13.259C14.1272 13.9637 13.2028 14.2108 12.4999 13.8071L13.4244 12.1975ZM12.923 12.3328L13.9167 10.6125L15.524 11.5409L14.5304 13.2612L12.923 12.3328ZM13.9172 10.6115C14.1853 10.1487 14.7325 9.91708 15.2573 10.0591L14.7724 11.8509C15.067 11.9306 15.3741 11.7997 15.5234 11.5419L13.9172 10.6115ZM15.255 10.0585C15.7757 10.198 16.137 10.6699 16.137 11.2079H14.2808C14.2808 11.5091 14.483 11.7733 14.7747 11.8515L15.255 10.0585ZM16.137 11.2079V16.616H14.2808V11.2079H16.137ZM16.137 16.616C16.137 16.5103 16.0978 16.4141 16.0335 16.3405C15.9693 16.2671 15.8559 16.1912 15.699 16.1809L15.5771 18.0331C14.7958 17.9817 14.2808 17.3011 14.2808 16.616H16.137ZM15.6871 16.1802C15.5774 16.1744 15.4435 16.2146 15.3417 16.3162L16.653 17.6298C16.36 17.9223 15.9716 18.054 15.589 18.0338L15.6871 16.1802ZM15.3411 16.3167C15.253 16.4048 15.2041 16.5255 15.2041 16.6465H17.0603C17.0603 17.0151 16.9155 17.3674 16.6536 17.6293L15.3411 16.3167ZM15.2041 16.6465V13.1095H17.0603V16.6465H15.2041ZM15.2041 13.1095C15.2041 12.4523 15.7368 11.9195 16.3941 11.9195V13.7757C16.762 13.7757 17.0603 13.4774 17.0603 13.1095H15.2041ZM16.3941 11.9195C17.0509 11.9195 17.584 12.4518 17.584 13.1095H15.7279C15.7279 13.4777 16.0265 13.7757 16.3941 13.7757V11.9195ZM17.584 13.1095L17.5839 17.4505L15.7277 17.4504L15.7279 13.1095L17.584 13.1095ZM17.5839 17.4505C17.5839 17.1924 17.3755 16.984 17.1174 16.984V18.8402C16.3503 18.8402 15.7277 18.2176 15.7277 17.4505H17.5839ZM17.1174 16.984C16.9966 16.984 16.8765 17.0327 16.7886 17.1204L18.0999 18.4342C17.8378 18.6957 17.4855 18.8402 17.1174 18.8402V16.984ZM16.7874 17.1217C16.6996 17.2096 16.651 17.3297 16.651 17.4505H18.5072C18.5072 17.8185 18.3627 18.1709 18.1011 18.4329L16.7874 17.1217ZM16.651 17.4505V13.1095H18.5072V17.4505H16.651ZM16.651 13.1095C16.651 12.4527 17.1832 11.9195 17.841 11.9195V13.7757C18.2091 13.7757 18.5072 13.4771 18.5072 13.1095H16.651ZM17.841 11.9195C18.4978 11.9195 19.031 12.4518 19.031 13.1095H17.1748C17.1748 13.4777 17.4734 13.7757 17.841 13.7757V11.9195ZM19.031 13.1096L19.0308 16.6059L17.1746 16.6058L17.1748 13.1095L19.031 13.1096ZM19.0308 16.6058V16.6465H17.1746V16.6058H19.0308ZM19.0308 16.6465C19.0308 16.3878 18.8219 16.1799 18.5645 16.1799V18.036C17.7977 18.036 17.1746 17.4139 17.1746 16.6465H19.0308ZM18.5645 16.1799C18.4412 16.1799 18.3218 16.23 18.2363 16.3152L19.5464 17.6301C19.2857 17.8898 18.9348 18.036 18.5645 18.036V16.1799ZM18.2357 16.3158C18.1469 16.4044 18.098 16.5255 18.098 16.6463H19.9542C19.9542 17.0148 19.8096 17.3674 19.547 17.6295L18.2357 16.3158ZM18.098 16.6463V13.1093H19.9542V16.6463H18.098ZM18.098 13.1093C18.098 12.4525 18.6303 11.9193 19.288 11.9193V13.7755C19.6562 13.7755 19.9542 13.4769 19.9542 13.1093H18.098ZM19.288 11.9193C19.9449 11.9193 20.478 12.4516 20.478 13.1093H18.6218C18.6218 13.4775 18.9205 13.7755 19.288 13.7755V11.9193ZM20.478 13.1094L20.4777 15.7792L18.6215 15.779L18.6218 13.1092L20.478 13.1094ZM20.4777 15.7791C20.4777 15.5217 20.2697 15.3128 20.0111 15.3128V17.169C19.2437 17.169 18.6215 16.5459 18.6215 15.7791H20.4777ZM20.0111 15.3128C19.8893 15.3128 19.7692 15.3621 19.6819 15.4493L20.9932 16.763C20.7321 17.0236 20.3804 17.169 20.0111 17.169V15.3128ZM19.6813 15.4499C19.5929 15.5383 19.5444 15.6589 19.5444 15.7791H21.4006C21.4006 16.1467 21.2567 16.4995 20.9938 16.7624L19.6813 15.4499ZM19.5444 15.7791L19.5446 10.3676L21.4008 10.3677L21.4006 15.7792L19.5444 15.7791ZM19.5446 10.3676C19.5446 8.99091 18.5436 8.02243 17.4947 8.02243V6.16625C19.7301 6.16625 21.4008 8.13493 21.4008 10.3676H19.5446ZM16.6024 6.83937L16.6024 6.83932L18.3871 7.34925L18.3871 7.34931L16.6024 6.83937Z" fill="#4CAF4F" mask="url(#path-1-inside-1_211_2338)"/>
<path d="M11.5285 21.7394C11.4042 21.8141 11.2435 21.7738 11.1692 21.6497C11.0947 21.5257 11.1351 21.3648 11.2589 21.2904M11.5285 21.7394L13.7911 18.6948C14.0097 18.5635 14.298 18.6153 14.4328 18.8103M11.5285 21.7394L14.5614 19.9199H14.5615L14.5619 19.9197M11.5285 21.7394L15.7259 20.298C15.8318 20.2344 15.9066 20.1337 15.9364 20.0142M11.2589 21.2904L14.2919 19.4708C14.3979 19.4072 14.4728 19.3064 14.5027 19.1871M11.2589 21.2904L11.2896 21.3415L11.3936 21.5149L11.3938 21.5152L11.4407 21.5934L11.4976 21.6883L11.4977 21.6882L11.4978 21.6882L11.498 21.688M11.2589 21.2904L11.2897 21.3415M14.5027 19.1871C14.5355 19.0563 14.5105 18.9225 14.4328 18.8103M14.5027 19.1871L14.5775 19.2059L14.5704 19.052C14.5654 18.9461 14.5345 18.8521 14.482 18.7766L14.4819 18.7763L14.4328 18.8103M14.5027 19.1871L14.5775 19.2059L14.5849 19.3647L14.4331 19.4558H14.4328L14.3226 19.5219L14.3226 19.5219L14.3226 19.522L11.2898 21.3414M14.4328 18.8103L14.4819 18.7763L12.2425 22.9288C12.3378 22.8715 12.3693 22.7476 12.3115 22.6515C12.2543 22.5561 12.13 22.5248 12.0343 22.5822L15.0672 20.7628C15.1369 20.7209 15.2099 20.6893 15.2845 20.6676L15.7549 20.3464L15.7549 20.3464L15.7808 20.3287C15.8912 20.2533 15.9642 20.1489 15.9942 20.0287L15.9942 20.0286L15.9364 20.0142M11.2898 21.3414C11.3852 21.2844 11.5094 21.3153 11.567 21.4108C11.5671 21.411 11.5673 21.4112 11.5674 21.4114C11.6246 21.5074 11.5931 21.6309 11.498 21.688M11.2898 21.3414C11.2897 21.3415 11.2897 21.3415 11.2897 21.3415M11.2898 21.3414L11.2897 21.3415M11.498 21.688L14.5307 19.8688L14.5307 19.8688L14.5309 19.8687C14.531 19.8686 14.531 19.8685 14.5311 19.8685L14.5614 19.9189L14.5615 19.9191L14.5619 19.9197M11.498 21.688L11.394 21.5151L11.3938 21.5148L11.3587 21.4563L11.2897 21.3415M14.5619 19.9197V19.8492C14.6204 19.8109 14.6739 19.7665 14.7218 19.7169L15.221 19.4563L15.221 19.4563L15.2486 19.4419C15.3289 19.4 15.4098 19.3804 15.4867 19.3804C15.5283 19.3804 15.5711 19.3855 15.6148 19.3964C15.6148 19.3964 15.6149 19.3964 15.6149 19.3964C15.615 19.3964 15.6152 19.3965 15.6153 19.3965L15.713 19.0041M14.5619 19.9197L15.251 19.5063C15.3566 19.443 15.4802 19.4244 15.6004 19.4543C15.72 19.4841 15.8208 19.5589 15.8843 19.6647C15.9478 19.7706 15.9663 19.8948 15.9364 20.0142M15.713 19.0041C15.713 19.0041 15.713 19.0041 15.713 19.0041M15.713 19.0041C15.9521 19.0639 16.1555 19.2148 16.2821 19.4258L16.3332 19.3952M15.713 19.0041L15.7274 18.9462M15.713 19.0041L15.615 19.3964C15.7507 19.4303 15.8632 19.5137 15.9353 19.6338C15.9353 19.6339 15.9353 19.634 15.9354 19.634C15.9354 19.634 15.9354 19.6341 15.9354 19.6341C16.0077 19.7548 16.0281 19.8932 15.9942 20.0284L15.9942 20.0286L15.9364 20.0142M15.713 19.0041C15.7129 19.0041 15.7129 19.0041 15.7128 19.0041L15.7122 19.0039C15.6405 18.9861 15.5679 18.977 15.4956 18.9764M15.713 19.0041L15.7274 18.9462M15.2754 21.1094L15.537 20.9525L15.8067 21.1116C15.8875 21.1593 15.9486 21.2189 15.9899 21.2879L15.99 21.2882C15.99 21.2882 15.9901 21.2883 15.9901 21.2884L15.9392 21.319M15.2754 21.1094L16.0492 21.683C16.0829 21.5473 16.0623 21.409 15.9902 21.2884L15.9392 21.319M15.2754 21.1094L15.3061 21.1606M15.2754 21.1094L15.2753 21.1094L15.3061 21.1606M15.9392 21.319C15.8082 21.1007 15.524 21.0297 15.3061 21.1606M15.9392 21.319C16.0029 21.4248 16.0214 21.5491 15.9915 21.6686L15.3061 21.1606M16.3814 21.0387C16.3836 21.0423 16.3858 21.0459 16.388 21.0496L16.3814 21.0387ZM16.3814 21.0387C16.3657 21.0509 16.3498 21.0629 16.3336 21.0745C16.3347 21.0763 16.3358 21.078 16.3369 21.0798L16.3814 21.0387ZM16.3092 20.331C16.3426 20.2669 16.3687 20.1984 16.3866 20.1267L16.3092 20.331ZM16.3092 20.331C16.3258 20.3413 16.3424 20.352 16.3587 20.3631C16.3959 20.2938 16.4249 20.2195 16.4444 20.141C16.5082 19.886 16.4687 19.6212 16.3332 19.3952M16.3092 20.331L16.3867 20.1266C16.4464 19.8875 16.4087 19.6372 16.2824 19.4262L16.2822 19.4259C16.2822 19.4259 16.2822 19.4259 16.2821 19.4258L16.3332 19.3952M16.3332 19.3952C16.1979 19.1696 15.9828 19.01 15.7274 18.9462M15.7274 18.9462L15.4904 18.9164M15.4904 18.9164C15.4925 18.9364 15.4943 18.9564 15.4956 18.9764M15.4904 18.9164C15.4891 18.9164 15.4879 18.9163 15.4867 18.9163C15.3298 18.9163 15.1756 18.9565 15.0339 19.0305M15.4904 18.9164L15.0339 19.0305M15.4956 18.9764C15.4963 18.9872 15.497 18.9981 15.4975 19.009L15.4867 19.0095L15.1986 19.0228M15.4956 18.9764C15.4926 18.9763 15.4897 18.9763 15.4867 18.9763C15.3888 18.9764 15.2916 18.9921 15.1986 19.0228M15.1986 19.0228L15.0339 19.0305M15.1986 19.0228C15.1513 19.0385 15.1052 19.058 15.0604 19.0813C15.0442 19.0898 15.0282 19.0988 15.0124 19.1082L15.0122 19.1083L14.9792 19.1281M15.0339 19.0305L14.7694 19.254L14.7695 19.2539L14.9528 19.2998C14.9528 19.2999 14.9528 19.2999 14.9528 19.3C14.9671 19.2429 14.9758 19.1854 14.9792 19.1281M15.0339 19.0305L14.9631 18.8948M15.0339 19.0305C15.0266 18.8724 14.9849 18.7167 14.9049 18.5777C14.8867 18.5858 14.8687 18.5943 14.8508 18.6031M14.9792 19.1281C14.9811 19.0963 14.9813 19.0646 14.9799 19.033C14.9778 18.9864 14.9722 18.9403 14.9631 18.8948M14.9792 19.1281L14.9631 18.8948M14.9631 18.8948L14.8192 18.6191C14.8297 18.6136 14.8402 18.6083 14.8508 18.6031M14.9631 18.8948L14.8143 18.5461C14.8272 18.5647 14.8394 18.5837 14.8508 18.6031M14.9631 18.8948C14.9427 18.7927 14.9049 18.6943 14.8508 18.6031M16.0425 20.7119L16.1218 20.5774C16.0874 20.6096 16.0505 20.6392 16.0112 20.6661C15.9961 20.6764 15.9806 20.6863 15.9648 20.6958L15.9646 20.696L15.9311 20.7161L16.0425 20.7119ZM8.63167 18.5523L8.57891 18.5245C8.56921 18.542 8.54507 18.5855 8.5094 18.6497C8.50057 18.6657 8.49103 18.6828 8.48083 18.7012C8.49901 18.7103 8.51736 18.7182 8.53573 18.7252C8.5671 18.6686 8.59908 18.611 8.63167 18.5523ZM12.7786 23.8229C12.7786 23.823 12.7786 23.823 12.7785 23.823L12.7786 23.8229Z" fill="#4CAF4F" stroke="#4CAF4F" stroke-width="0.928093"/>
<path d="M24.4805 19.3884L24.4805 19.3885L24.4805 19.3884ZM24.4805 19.3884C24.3833 19.2143 24.3872 18.9998 24.4902 18.8281L24.4805 19.3884ZM18.7389 18.9762C18.6664 18.9768 18.5935 18.986 18.5216 19.004L18.7389 18.9762ZM18.7389 18.9762C18.7403 18.9562 18.742 18.9363 18.7442 18.9163L18.7389 18.9762ZM24.0629 19.7139L24.0235 19.6429L24.0629 19.7139ZM22.9447 21.3414C22.9446 21.3413 22.9445 21.3413 22.9444 21.3412L22.9446 21.3413L22.9447 21.3414ZM21.4559 23.8234C21.4557 23.8233 21.4556 23.8232 21.4555 23.8232L21.4559 23.8234ZM21.4554 23.8231L21.4555 23.8231L21.4554 23.8231Z" fill="#4CAF4F" stroke="#4CAF4F" stroke-width="0.928093"/>
</svg>
