<svg width="34" height="34" viewBox="0 0 34 34" fill="none" xmlns="http://www.w3.org/2000/svg">
<path d="M4.13269 11.634V11.982H4.48073H29.5392H29.8873V11.634V10.0679C29.8873 9.28327 29.5756 8.53081 29.0208 7.97602C28.466 7.42123 27.7136 7.10956 26.929 7.10956H7.09099C6.3064 7.10956 5.55394 7.42123 4.99916 7.97602C4.44437 8.53081 4.13269 9.28327 4.13269 10.0679V11.634ZM29.8873 13.7222V13.3742H29.5392H4.48073H4.13269V13.7222V23.6412C4.13269 24.4258 4.44437 25.1783 4.99916 25.733C5.55394 26.2878 6.3064 26.5995 7.09099 26.5995H26.929C27.7136 26.5995 28.466 26.2878 29.0208 25.733C29.5756 25.1783 29.8873 24.4258 29.8873 23.6412V13.7222ZM2.74055 10.0679C2.74055 8.91405 3.1989 7.8075 4.01476 6.99163C4.83063 6.17577 5.93718 5.71742 7.09099 5.71742H26.929C28.0828 5.71742 29.1893 6.17577 30.0052 6.99163C30.8211 7.8075 31.2794 8.91405 31.2794 10.0679V23.6412C31.2794 24.795 30.8211 25.9016 30.0052 26.7174C29.1893 27.5333 28.0828 27.9916 26.929 27.9916H7.09099C5.93718 27.9916 4.83063 27.5333 4.01476 26.7174C3.1989 25.9016 2.74055 24.795 2.74055 23.6412V10.0679ZM22.2305 20.3349H25.3628C25.5474 20.3349 25.7245 20.4082 25.855 20.5388C25.9855 20.6693 26.0589 20.8463 26.0589 21.0309C26.0589 21.2156 25.9855 21.3926 25.855 21.5231C25.7245 21.6537 25.5474 21.727 25.3628 21.727H22.2305C22.0459 21.727 21.8688 21.6537 21.7383 21.5231C21.6078 21.3926 21.5344 21.2156 21.5344 21.0309C21.5344 20.8463 21.6078 20.6693 21.7383 20.5388C21.8688 20.4082 22.0459 20.3349 22.2305 20.3349Z" fill="#4CAF4F" stroke="#4CAF4F" stroke-width="0.696069"/>
</svg>
