<svg width="46" height="40" viewBox="0 0 46 40" fill="none" xmlns="http://www.w3.org/2000/svg">
<path d="M45.9187 26.8834C45.9187 33.8031 40.3092 39.4126 33.3894 39.4126L14.5956 39.4126C12.6734 39.4126 11.1152 37.8544 11.1152 35.9322L11.1152 12.2659C11.1152 8.4216 14.2316 5.30519 18.0759 5.30519L42.4384 5.30519C44.3605 5.30519 45.9187 6.8634 45.9187 8.78554L45.9187 26.8834Z" fill="#E8F5E9"/>
<path d="M17.3729 7.39331C14.8871 7.39331 12.8634 9.4355 12.8634 11.9319C12.8634 13.5112 13.6743 14.9056 14.8989 15.7184C13.4199 16.213 12.1401 17.1372 11.2014 18.3464C10.6824 17.9473 10.1025 17.6262 9.47742 17.3962C10.4254 16.6924 11.0448 15.5619 11.0448 14.2913C11.0448 12.1741 9.33245 10.4408 7.22801 10.4408C5.12358 10.4408 3.41119 12.1741 3.41119 14.2913C3.41119 15.5627 4.03118 16.6937 4.97993 17.3974C2.46811 18.3243 0.674194 20.7511 0.674194 23.607V25.6132C0.674451 25.7662 0.735627 25.9127 0.844097 26.0204C0.952566 26.1283 1.09934 26.1885 1.25228 26.188H10.0541C10.0754 26.1903 10.0967 26.1916 10.1181 26.1913H24.6282C24.6495 26.1916 24.6711 26.1903 24.6922 26.188H33.4947C33.8111 26.1867 34.0673 25.9299 34.0681 25.6132V23.607C34.0681 20.7511 32.2773 18.3243 29.7668 17.3972C30.7155 16.6937 31.3355 15.5624 31.3355 14.2911C31.3355 12.1738 29.6231 10.4406 27.5187 10.4406C25.4143 10.4406 23.7019 12.1738 23.7019 14.2911C23.7019 15.5617 24.3216 16.6924 25.2696 17.3959C24.6432 17.6265 24.063 17.9486 23.5433 18.3487C22.6051 17.1388 21.3271 16.2132 19.8481 15.7184C21.0723 14.9056 21.8836 13.5112 21.8836 11.9319C21.8836 9.4355 19.8589 7.39331 17.373 7.39331H17.3729ZM17.3729 8.54486C19.2321 8.54486 20.7309 10.0537 20.7309 11.9319C20.7309 13.7955 19.2554 15.2896 17.4168 15.3136C17.4022 15.3136 17.3878 15.3115 17.3729 15.3115C17.358 15.3115 17.3438 15.3136 17.3289 15.3136C15.4903 15.2899 14.0159 13.7955 14.0159 11.9319C14.0159 10.0535 15.5134 8.54486 17.3726 8.54486H17.3729ZM7.22808 11.5923C8.70325 11.5923 9.89335 12.7896 9.89335 14.2913C9.89335 15.7829 8.71864 16.975 7.25736 16.9912C7.24759 16.9912 7.23808 16.9902 7.22806 16.9902C7.21829 16.9902 7.20878 16.9912 7.19876 16.9912C5.73748 16.975 4.56277 15.7826 4.56277 14.2913C4.56277 12.7897 5.75287 11.5923 7.22804 11.5923H7.22808ZM27.5184 11.5923C28.9935 11.5923 30.1836 12.7896 30.1836 14.2913C30.1836 15.7829 29.0089 16.975 27.5476 16.9912C27.5379 16.9912 27.5284 16.9902 27.5183 16.9902C27.5086 16.9902 27.4991 16.9912 27.489 16.9912C26.0277 16.975 24.853 15.7826 24.853 14.2913C24.853 12.7897 26.0431 11.5923 27.5183 11.5923H27.5184ZM17.3288 16.4651C17.3435 16.4653 17.3578 16.4671 17.3728 16.4671C17.3874 16.4671 17.4018 16.4651 17.4167 16.4651C21.104 16.4887 24.0549 19.465 24.0549 23.1908L24.0546 25.0394H10.6914V23.1908C10.6914 19.4647 13.6415 16.4888 17.3283 16.4651H17.3288ZM7.18399 18.1441C7.19864 18.1444 7.21304 18.1461 7.22795 18.1461C7.24286 18.1461 7.25699 18.1441 7.2719 18.1441C8.51906 18.1541 9.65725 18.5841 10.5636 19.3036C9.91503 20.4511 9.53999 21.7755 9.53999 23.1911V25.0354H1.82528V23.607C1.82528 20.579 4.20602 18.1677 7.18386 18.1438L7.18399 18.1441ZM27.4743 18.1441C27.4892 18.1444 27.5033 18.1461 27.5182 18.1461C27.5331 18.1461 27.5473 18.1441 27.5622 18.1441C30.54 18.1677 32.9208 20.5793 32.9208 23.6072V25.0354H25.2021L25.2018 23.1911C25.2018 21.7763 24.8278 20.4528 24.1806 19.3056C25.0871 18.5852 26.2261 18.1541 27.4743 18.1441H27.4743Z" fill="#103E13"/>
</svg>
