<svg width="25" height="17" viewBox="0 0 25 17" fill="none" xmlns="http://www.w3.org/2000/svg">
<path d="M13.3106 9.17133L9.55812 15.5981L5.80569 9.17133H13.3106ZM14.3159 8.59692H4.79636L9.55812 16.7348L14.3159 8.59692Z" fill="#263238"/>
<path d="M19.8347 1.17808L23.5871 7.60481H16.0822L19.8347 1.17808ZM19.8347 0.0292969L15.0729 8.16715H24.5964L19.8347 0.0292969Z" fill="#263238"/>
<path d="M0.234009 0.0292969L4.2266 7.22725L8.58952 0.210039L0.234009 0.0292969Z" fill="#4CAF4F"/>
<path d="M9.55822 0.659668L13.7462 7.81746H5.36215L9.55822 0.659668Z" fill="#4CAF4F"/>
<path d="M14.8247 9.38013L19.0167 16.7348H10.4332L14.6944 9.38013H14.8247Z" fill="#4CAF4F"/>
<path d="M15.7322 8.93433L19.8347 16.1765L23.9941 8.93433H15.7322Z" fill="#4CAF4F"/>
</svg>
