<svg width="108" height="17" viewBox="0 0 108 17" fill="none" xmlns="http://www.w3.org/2000/svg">
<path d="M13.3106 9.17133L9.55812 15.5981L5.80569 9.17133H13.3106ZM14.3159 8.59692H4.79636L9.55812 16.7348L14.3159 8.59692Z" fill="#263238"/>
<path d="M19.8347 1.17808L23.5871 7.60481H16.0822L19.8347 1.17808ZM19.8347 0.0292969L15.0729 8.16715H24.5964L19.8347 0.0292969Z" fill="#263238"/>
<path d="M0.234009 0.0292969L4.2266 7.22725L8.58952 0.210039L0.234009 0.0292969Z" fill="#4CAF4F"/>
<path d="M9.55822 0.659668L13.7462 7.81746H5.36215L9.55822 0.659668Z" fill="#4CAF4F"/>
<path d="M14.8247 9.38013L19.0167 16.7348H10.4332L14.6944 9.38013H14.8247Z" fill="#4CAF4F"/>
<path d="M15.7322 8.93433L19.8347 16.1765L23.9941 8.93433H15.7322Z" fill="#4CAF4F"/>
<path d="M42.0209 1.19092V15.3654H39.4324L33.2657 6.44407H33.1618V15.3654H30.165V1.19092H32.795L38.9133 10.1054H39.0379V1.19092H42.0209Z" fill="#263238"/>
<path d="M49.2864 15.5731C48.1928 15.5731 47.2516 15.3516 46.4625 14.9086C45.6781 14.4611 45.0737 13.8289 44.6492 13.0122C44.2247 12.1909 44.0125 11.2197 44.0125 10.0984C44.0125 9.00489 44.2247 8.04516 44.6492 7.21924C45.0737 6.39331 45.6712 5.74965 46.4418 5.28824C47.217 4.82683 48.1259 4.59612 49.1687 4.59612C49.8701 4.59612 50.523 4.70917 51.1274 4.93526C51.7365 5.15673 52.2671 5.49126 52.7193 5.93882C53.1761 6.38639 53.5313 6.94931 53.7851 7.62758C54.0389 8.30124 54.1658 9.09025 54.1658 9.99461V10.8044H45.1891V8.97721H51.3904C51.3904 8.55271 51.2981 8.17666 51.1136 7.84906C50.929 7.52146 50.6729 7.26538 50.3453 7.08081C50.0223 6.89163 49.6463 6.79705 49.2172 6.79705C48.7696 6.79705 48.3728 6.90086 48.0267 7.1085C47.6853 7.31152 47.4177 7.58606 47.2239 7.93211C47.0301 8.27356 46.9309 8.65422 46.9263 9.0741V10.8113C46.9263 11.3373 47.0232 11.7918 47.217 12.1748C47.4154 12.5577 47.6945 12.853 48.0544 13.0607C48.4143 13.2683 48.8411 13.3721 49.3348 13.3721C49.6624 13.3721 49.9623 13.326 50.2346 13.2337C50.5068 13.1414 50.7398 13.003 50.9336 12.8184C51.1274 12.6339 51.275 12.4078 51.3766 12.1402L54.1035 12.3201C53.9651 12.9753 53.6813 13.5475 53.2522 14.0366C52.8277 14.521 52.2786 14.8994 51.605 15.1716C50.9359 15.4392 50.1631 15.5731 49.2864 15.5731Z" fill="#263238"/>
<path d="M58.3635 4.73454L60.3152 8.4512L62.3154 4.73454H65.34L62.2601 10.05L65.423 15.3654H62.4123L60.3152 11.6903L58.2527 15.3654H55.2074L58.3635 10.05L55.3182 4.73454H58.3635Z" fill="#263238"/>
<path d="M71.5136 15.5731C70.4247 15.5731 69.488 15.3424 68.7036 14.8809C67.9239 14.4149 67.324 13.7689 66.9041 12.943C66.4889 12.1171 66.2812 11.1666 66.2812 10.0915C66.2812 9.00258 66.4912 8.04747 66.9111 7.22616C67.3356 6.40023 67.9377 5.75657 68.7175 5.29516C69.4973 4.82913 70.4247 4.59612 71.4998 4.59612C72.4272 4.59612 73.2393 4.76454 73.936 5.10136C74.6328 5.43819 75.1841 5.91114 75.5902 6.5202C75.9962 7.12926 76.22 7.84445 76.2615 8.66576H73.4792C73.4008 8.13513 73.1932 7.70833 72.8563 7.38534C72.5241 7.05774 72.0881 6.89394 71.5482 6.89394C71.0914 6.89394 70.6923 7.01852 70.3509 7.26768C70.0141 7.51223 69.751 7.86982 69.5619 8.34046C69.3727 8.8111 69.2781 9.38094 69.2781 10.05C69.2781 10.7283 69.3704 11.305 69.5549 11.7803C69.7441 12.2555 70.0094 12.6177 70.3509 12.8669C70.6923 13.1161 71.0914 13.2406 71.5482 13.2406C71.8851 13.2406 72.1873 13.1714 72.4549 13.033C72.7271 12.8946 72.9509 12.6939 73.1263 12.4309C73.3062 12.1632 73.4239 11.8426 73.4792 11.4688H76.2615C76.2154 12.2809 75.9939 12.9961 75.5971 13.6144C75.2049 14.228 74.6628 14.7079 73.9706 15.054C73.2785 15.4 72.4595 15.5731 71.5136 15.5731Z" fill="#263238"/>
<path d="M82.9941 15.5731C81.9005 15.5731 80.9593 15.3516 80.1703 14.9086C79.3859 14.4611 78.7814 13.8289 78.3569 13.0122C77.9324 12.1909 77.7202 11.2197 77.7202 10.0984C77.7202 9.00489 77.9324 8.04516 78.3569 7.21924C78.7814 6.39331 79.3789 5.74965 80.1495 5.28824C80.9247 4.82683 81.8336 4.59612 82.8764 4.59612C83.5778 4.59612 84.2307 4.70917 84.8351 4.93526C85.4442 5.15673 85.9748 5.49126 86.427 5.93882C86.8838 6.38639 87.239 6.94931 87.4928 7.62758C87.7466 8.30124 87.8735 9.09025 87.8735 9.99461V10.8044H78.8968V8.97721H85.0981C85.0981 8.55271 85.0058 8.17666 84.8213 7.84906C84.6367 7.52146 84.3806 7.26538 84.053 7.08081C83.73 6.89163 83.354 6.79705 82.9249 6.79705C82.4773 6.79705 82.0805 6.90086 81.7344 7.1085C81.393 7.31152 81.1254 7.58606 80.9316 7.93211C80.7378 8.27356 80.6386 8.65422 80.634 9.0741V10.8113C80.634 11.3373 80.7309 11.7918 80.9247 12.1748C81.1231 12.5577 81.4022 12.853 81.7621 13.0607C82.122 13.2683 82.5488 13.3721 83.0425 13.3721C83.3701 13.3721 83.67 13.326 83.9423 13.2337C84.2145 13.1414 84.4475 13.003 84.6413 12.8184C84.8351 12.6339 84.9828 12.4078 85.0843 12.1402L87.8112 12.3201C87.6728 12.9753 87.389 13.5475 86.9599 14.0366C86.5354 14.521 85.9863 14.8994 85.3127 15.1716C84.6436 15.4392 83.8708 15.5731 82.9941 15.5731Z" fill="#263238"/>
<path d="M92.746 9.21945V15.3654H89.7976V4.73454H92.6075V6.61018H92.7321C92.9674 5.99189 93.362 5.50279 93.9156 5.14289C94.4693 4.77838 95.1407 4.59612 95.9297 4.59612C96.668 4.59612 97.3116 4.75762 97.8607 5.0806C98.4098 5.40359 98.8366 5.865 99.1411 6.46483C99.4456 7.06005 99.5979 7.77062 99.5979 8.59654V15.3654H96.6495V9.12255C96.6541 8.47196 96.488 7.96441 96.1512 7.5999C95.8143 7.23077 95.3506 7.04621 94.76 7.04621C94.3632 7.04621 94.0125 7.13157 93.708 7.30229C93.4081 7.47301 93.1728 7.72217 93.0021 8.04977C92.8359 8.37276 92.7506 8.76265 92.746 9.21945Z" fill="#263238"/>
<path d="M107.576 4.73454V6.94931H101.174V4.73454H107.576ZM102.628 2.18756H105.576V12.0986C105.576 12.3709 105.618 12.5831 105.701 12.7354C105.784 12.883 105.899 12.9869 106.047 13.0468C106.199 13.1068 106.374 13.1368 106.573 13.1368C106.711 13.1368 106.85 13.1253 106.988 13.1022C107.126 13.0745 107.233 13.0538 107.306 13.0399L107.77 15.2339C107.622 15.2801 107.415 15.3331 107.147 15.3931C106.88 15.4577 106.554 15.4969 106.171 15.5108C105.461 15.5385 104.838 15.4439 104.303 15.227C103.772 15.0101 103.359 14.6733 103.064 14.2165C102.768 13.7597 102.623 13.183 102.628 12.4862V2.18756Z" fill="#263238"/>
</svg>
